<?xml version="1.0" encoding="iso-8859-1"?>
<!-- Generator: Adobe Illustrator 19.0.0, SVG Export Plug-In . SVG Version: 6.00 Build 0)  -->
<svg version="1.1" id="Capa_1" xmlns="http://www.w3.org/2000/svg" xmlns:xlink="http://www.w3.org/1999/xlink" x="0px" y="0px"
	 viewBox="0 0 512 512" style="enable-background:new 0 0 512 512;" xml:space="preserve" fill="#0075f6">
<g>
	<g>
		<path d="M416,42.667H224c-17.673,0-32,14.327-32,32c0,17.673,14.327,32,32,32h192c17.673,0,32-14.327,32-32
			C448,56.994,433.673,42.667,416,42.667z M416,85.333H224c-5.891,0-10.667-4.776-10.667-10.667C213.333,68.776,218.109,64,224,64
			h192c5.891,0,10.667,4.776,10.667,10.667C426.667,80.558,421.891,85.333,416,85.333z"/>
	</g>
</g>
<g>
	<g>
		<rect x="192" y="138.667" width="117.333" height="21.333"/>
	</g>
</g>
<g>
	<g>
		<rect x="330.667" y="138.667" width="42.667" height="21.333"/>
	</g>
</g>
<g>
	<g>
		<rect x="394.667" y="138.667" width="42.667" height="21.333"/>
	</g>
</g>
<g>
	<g>
		<rect x="320" y="181.333" width="117.333" height="21.333"/>
	</g>
</g>
<g>
	<g>
		<rect x="256" y="181.333" width="42.667" height="21.333"/>
	</g>
</g>
<g>
	<g>
		<rect x="192" y="181.333" width="42.667" height="21.333"/>
	</g>
</g>
<g>
	<g>
		<path d="M490.667,256v106.667c0,11.782-9.551,21.333-21.333,21.333H42.667c-11.782,0-21.333-9.551-21.333-21.333v-320
			c0-11.782,9.551-21.333,21.333-21.333h74.667V0H42.667C19.103,0,0,19.103,0,42.667v320c0,23.564,19.103,42.667,42.667,42.667
			h426.667c23.564,0,42.667-19.103,42.667-42.667V256H490.667z"/>
	</g>
</g>
<g>
	<g>
		<path d="M405.333,448H106.667c-17.673,0-32,14.327-32,32s14.327,32,32,32h298.667c17.673,0,32-14.327,32-32
			S423.006,448,405.333,448z M405.333,490.667H106.667C100.776,490.667,96,485.891,96,480c0-5.891,4.776-10.667,10.667-10.667
			h298.667c5.891,0,10.667,4.776,10.667,10.667C416,485.891,411.224,490.667,405.333,490.667z"/>
	</g>
</g>
<g>
	<g>
		<path d="M320,384H192c-5.891,0-10.667,4.776-10.667,10.667v64c0,5.891,4.776,10.667,10.667,10.667h128
			c5.891,0,10.667-4.776,10.667-10.667v-64C330.667,388.776,325.891,384,320,384z M309.333,448H202.667v-42.667h106.667V448z"/>
	</g>
</g>
<g>
	<g>
		<path d="M330.667,330.667c-4.043-0.002-7.74,2.282-9.547,5.899L313.408,352H198.592l-7.712-15.435
			c-1.807-3.617-5.504-5.901-9.547-5.899H0V352h174.741l7.712,15.435c1.807,3.617,5.504,5.901,9.547,5.899h128
			c4.062,0.022,7.784-2.265,9.6-5.899L337.259,352H512v-21.333H330.667z"/>
	</g>
</g>
<g>
	<g>
		<g>
			<polygon points="259.328,330.667 259.328,330.667 259.328,330.667 			"/>
			<path d="M437.333,0H192c-41.218,0.047-74.62,33.449-74.667,74.667v106.667C117.38,222.551,150.782,255.953,192,256h47.819
				l-11.701,27.339c-1.812,4.228-2.747,8.78-2.746,13.381c0.003,18.751,15.205,33.95,33.956,33.947
				c6.966,0.009,13.764-2.133,19.467-6.133L376.693,256h60.64c41.218-0.047,74.62-33.449,74.667-74.667V74.667
				C511.953,33.449,478.551,0.047,437.333,0z M490.667,181.333c-0.035,29.441-23.893,53.298-53.333,53.333h-64
				c-2.211,0.006-4.366,0.7-6.165,1.984l-100.651,70.4c-5.857,3.924-13.78,2.413-17.781-3.392c-2.375-3.53-2.778-8.03-1.067-11.925
				l18.133-42.197c0.569-1.328,0.863-2.757,0.863-4.202c0.001-5.891-4.774-10.667-10.666-10.668h-64
				c-29.441-0.035-53.298-23.893-53.333-53.333V74.667c0.035-29.441,23.893-53.298,53.333-53.333h245.333
				c29.441,0.035,53.298,23.893,53.333,53.333V181.333z"/>
		</g>
	</g>
</g>
<g>
	<g>
		<rect x="53.333" y="64" width="32" height="21.333"/>
	</g>
</g>
<g>
	<g>
		<rect x="53.333" y="106.667" width="32" height="21.333"/>
	</g>
</g>
<g>
	<g>
		<rect x="53.333" y="149.333" width="21.333" height="21.333"/>
	</g>
</g>
<g>
	<g>
		<rect x="53.333" y="192" width="21.333" height="21.333"/>
	</g>
</g>
<g>
	<g>
		<rect x="53.333" y="234.667" width="21.333" height="21.333"/>
	</g>
</g>
<g>
</g>
<g>
</g>
<g>
</g>
<g>
</g>
<g>
</g>
<g>
</g>
<g>
</g>
<g>
</g>
<g>
</g>
<g>
</g>
<g>
</g>
<g>
</g>
<g>
</g>
<g>
</g>
<g>
</g>
</svg>
