<?xml version="1.0" encoding="iso-8859-1"?>
<!-- Generator: Adobe Illustrator 19.0.0, SVG Export Plug-In . SVG Version: 6.00 Build 0)  -->
<svg version="1.1" id="Capa_1" xmlns="http://www.w3.org/2000/svg" xmlns:xlink="http://www.w3.org/1999/xlink" x="0px" y="0px"
	 viewBox="0 0 512.001 512.001" style="enable-background:new 0 0 512.001 512.001;" xml:space="preserve" fill="#0075f6">
<g>
	<g>
		<path d="M251.024,61.037c-5.52,0-9.999,4.48-9.999,9.999s4.48,9.999,9.999,9.999c5.52,0,9.999-4.48,9.999-9.999
			S256.544,61.037,251.024,61.037z"/>
	</g>
</g>
<g>
	<g>
		<path d="M271.023,181.026h-39.996c-4.305,0-8.125,2.754-9.486,6.837L211.028,219.4l-10.512-31.536
			c-1.361-4.084-5.183-6.837-9.486-6.837h-12.191l-18.104-72.42c-1.112-4.451-5.112-7.573-9.7-7.573c-4.589,0-8.588,3.123-9.7,7.573
			l-18.104,72.42H91.038c-5.522,0-9.999,4.478-9.999,9.999c0,5.522,4.478,9.999,9.999,9.999h39.996c4.589,0,8.588-3.123,9.7-7.573
			l10.298-41.19l10.298,41.19c1.112,4.451,5.112,7.573,9.7,7.573h12.791l17.719,53.157c1.361,4.084,5.183,6.837,9.486,6.837
			c4.304,0,8.125-2.754,9.486-6.837l17.719-53.157h32.789c5.522,0,9.999-4.478,9.999-9.999
			C281.022,185.504,276.544,181.026,271.023,181.026z"/>
	</g>
</g>
<g>
	<g>
		<path d="M495.476,424.867C482.54,413.05,351.123,293.259,332.559,276.336c44.371-70.429,34.724-163.595-25.259-223.579
			c-70.34-70.338-184.192-70.346-254.54,0c-70.338,70.34-70.346,184.192,0,254.541c59.953,59.951,153.002,69.583,223.369,25.387
			c0.149,0.163,150.437,164.578,150.557,164.696c19.529,19.496,51.127,19.507,70.654-0.037
			C518.104,476.596,516.196,443.257,495.476,424.867z M66.902,293.155c-62.521-62.519-62.532-163.728,0-226.257
			c62.52-62.521,163.728-62.533,226.257,0c62.91,62.909,62.794,164.043,0.29,226.547
			C230.901,356.003,129.675,355.928,66.902,293.155z M293.772,322.057c-0.104-0.114-0.211-0.224-0.319-0.334l-0.781-0.781
			c5.192-4.153,10.183-8.62,14.92-13.356c4.705-4.704,9.147-9.672,13.287-14.841l23.003,20.972l-30.188,30.188L293.772,322.057z
			 M483.199,483.202c-12.368,12.376-32.481,11.402-43.503-1.15L327.183,358.698l31.493-31.492l123.382,112.487
			C495.499,452.127,494.771,471.64,483.199,483.202z"/>
	</g>
</g>
<g>
	<g>
		<path d="M288.473,91.42c-3.509-4.263-9.81-4.877-14.075-1.367s-4.876,9.811-1.367,14.075
			c39.424,47.902,36.041,117.13-7.87,161.031c-46.805,46.815-122.869,46.821-169.682-0.002
			c-46.816-46.806-46.82-122.87,0.001-169.681c30.275-30.274,74.852-42.121,116.342-30.914c5.33,1.438,10.821-1.715,12.261-7.046
			c1.439-5.331-1.715-10.82-7.046-12.261C168.658,32.185,116.66,46.011,81.339,81.333c-54.632,54.622-54.638,143.339-0.002,197.965
			c54.622,54.633,143.339,54.638,197.965,0.002C330.559,228.05,333.779,146.468,288.473,91.42z"/>
	</g>
</g>
<g>
</g>
<g>
</g>
<g>
</g>
<g>
</g>
<g>
</g>
<g>
</g>
<g>
</g>
<g>
</g>
<g>
</g>
<g>
</g>
<g>
</g>
<g>
</g>
<g>
</g>
<g>
</g>
<g>
</g>
</svg>
